/* XPM */
static char *result[] = {
/* columns rows colors chars-per-pixel */
"64 64 59 1 ",
"  c #652E00",
". c #662E00",
"X c #672E00",
"o c #662F00",
"O c #672F01",
"+ c #683102",
"@ c #6A3302",
"# c #6B3303",
"$ c #6C3504",
"% c #6C3505",
"& c #6C3506",
"* c #6D3506",
"= c #6D380B",
"- c #6F3B0F",
"; c #703907",
": c #703809",
"> c #70390A",
", c #723A0C",
"< c #733B0D",
"1 c #723E11",
"2 c #77410E",
"3 c #754319",
"4 c #764519",
"5 c #844E1B",
"6 c #8A551D",
"7 c #895422",
"8 c #845832",
"9 c #9A6530",
"0 c #9B6633",
"q c #906844",
"w c #95704C",
"e c #97724F",
"r c #A97540",
"t c #A07F61",
"y c #E1D300",
"u c #FFFB00",
"i c #B5804C",
"p c #BF8B57",
"a c #C38F5C",
"s c #C5915D",
"d c #C6925E",
"f c #C89461",
"g c #CA9663",
"h c #CB9764",
"j c #CC9865",
"k c #CD9966",
"l c #C3AE9B",
"z c #CBBAA7",
"x c #D1C0B0",
"c c #D5C8B9",
"v c #D6C8B9",
"b c #DDD2C6",
"n c #F1EDE8",
"m c #F4F1ED",
"M c #F8F7F4",
"N c #FCFCFA",
"B c #FEFFFE",
"V c white",
"C c None",
/* pixels */
"CCCCCCCCCCCCCCCCCCCCCCCCCCCCCCCCCCCCCCCCCCCCCCCCCCCCCCCCCCCCCCCC",
"CCCCCCCCCCCCCCCCCCCCCCCCCCCCCCCCCCCCCCCCCCCCCCCCCCCCCCCCCCCCCCCC",
"CCCCCCCCCCCCCCCCCCCCCCCCCCCCCCCCCCCCCCCCCCCCCCCCCCCCCCCCCCCCCCCC",
"CCCCCCCCCCCCCCCCCCCCCCCCCCCCCCCCCCCCCCCCCCCCCCCCCCCCCCCCCCCCCCCC",
"CCCCCCCCCCCCCCCCCCCCCCCCCCCCCCCCCCCCCCCCCCCCCCCCCCCCCCCCCCCCCCCC",
"CCCCCCCCCCCCCCCCCCCCCCCCCCCCCCCCCCCCCCCCCCCCCCCCCCCCCCCCCCCCCCCC",
"CCCCCCCCCCCCCCCCCCCCCCCCCCCCCCCCCCCCCCCCCCCCCCCCCCCCCCCCCCCCCCCC",
"CCCCCCCCCCCCCCCCCCCCCCCCCCCCCCCCCCCCCCCCCCCCCCCCCCCCCCCCCCCCCCCC",
"CCCCCCCCCCCCCCCCCCCCCCCCCCCCCCCCCCCCCCCCCCCCCCCCCCCCCCCCCCCCCCCC",
"CCCCCCCCCCCCCCCCCCCCCCCCCCCCCCC...CCCCCCCCCCCCCCCCCCCCCCCCCCCCCC",
"CCCCCCCCCCCCCCCCCCCCCCCCCCCCCCC.k....CCCCCCCCCCCCCCCCCCCCCCCCCCC",
"CCCCCCCCCCCCCCCCCCCC.BxCBBCBBC.fkkkk...CCCCCCCCCCCCCCCCCCCCCCCCC",
"CCCCCCCCCCCCCCCCCCCCBBBBBtBBB..kkkkkkk...CCCCCCCCCCCCCCCCCCCCCCC",
"CCCCCCCCCCCCCCCCCCCCBBvBB1.BB8kkkkkkkkkk..CCCCCCCCCCCCCCCCCCCCCC",
"CCCCCCCCCCCCCCCCCCBBBB4uuBBBBkkkkkkkkkkkk..CCCCCCCCCCCCCCCCCCCCC",
"CCCCCCCCCCCCCCCCCCNBBMuuu.B..kkkkkkkkkkkkki.CCCCCCCCCCCCCCCCCCCC",
"CCCCCCCCCCCCCCCCBBB.ByuuuBoBBBkkkkkkkkkkkkkk.CCCCCCCCCCCCCCCCCCC",
"CCCCCCCCCCCCCCC.BBBBB.uuBBB=BBkkkkkkkkkkkkkkk.CCCCCCCCCCCCCCCCCC",
"CCCCCCCCCCCCCCCC .BBB.BBBBBm.kkkkkkkkkkkkkkkk..CCCCCCCCCCCCCCCCC",
"CCCCCCCCCCCCCCCCCBB.BBB.B..kkkkkkkkkkkkkkkkkkk.XCCCCCCCCCCCCCCCC",
"CCCCCCCCCCCCCCCCC.BB.BBBB.kkkkkkkkkkkkkkkkkkkkk.CCCCCCCCCCCCCCCC",
"CCCCCCCCCCCCCCCCCBBB.BeBBkkkkkkkkkkkkkkkkkkkkkk.XCCCCCCCCCCCCCCC",
"CCCCCCCCCCCCCCCC.B.kkk.BOkkkkkkkkkkkkkkkkkkkkkkd.CCCCCCCCCCCCCCC",
"CCCCCCCCCCCCCCCC.kkkkkkkkkkkkkkkkkkkkkkkkkkkkkkk.CCCCCCCCCCCCCCC",
"CCCCCCCCCCCCCCC.hkkkkkkkkkkkkkkp   kkkkkk   pkkk.CCCCCCCCCCCCCCC",
"CCCCCCCCCCCCCCC.kkkkkkkkkkkkkkk VVbkkkkkk VV kkk..CCCCCCCCCCCCCC",
"CCCCCCCCCCCCCC..kkkkkkkkkkkkkkk VV kkkkkk VV kkk..CCCCCCCCCCCCCC",
"CCCCCCCCCCCCCC.2kkkkkkkkkkkkkkk    kkkkkk    kkk..CCCCCCCCCCCCCC",
"CCCCCCCCCCCCCC..%5lBkkkkkkkkkkkj  $kkkkkk@  jkkk..CCCCCCCCCCCCCC",
"CCCCCCCCCCCCCCC.cB-Bkkkkkkkkkkkkkkkkkkkkkkkkkkkk.CCCCCCCCCCCCCCC",
"CCCCCCCCCCCCCCCBMuBBkkkkkkkkkkkkkkkkkkkkkkkkkkkk.CCCCCCCCCCCCCCC",
"CCCCCCCCCCCCCC.B+Bn..kkkkkkkkkkkkkkkkkkkkkkkkkka.CCCCCCCCCCCCCCC",
"CCCCCCCCCCCCC..B9Bkkkkkkkkkkkkkkkkk..6kk.7kkr..k..oCCCCCCCCCCCCC",
"CCCCCCCCCCCCC.kkkkkkkkkkkkkkkkkkkkkk....skkkkkkkkk.oCCCCCCCCCCCC",
"CCCCCCCCCCCC..kkkkkkkkkkkkkkkkkkkkkkkkkkkkkkkkkkkkk.CCCCCCCCCCCC",
"CCCCCCCCCCCC.kkkkkkkkkkkkkkkkkkkkkkkkkkkkkkkkkkkkkk..CCCCCCCCCCC",
"CCCCCCCCCCCC.kkkkkkkkkkkkkkkkkkkkkkkkkkkkkkkkkkkkkkk.CCCCCCCCCCC",
"CCCCCCCCCCCC.kkkkkkkkkkkkkkkkkkkkkkkkkkkkkkkkkkkB;0z.CCCCCCCCCCC",
"CCCCCCCCCC.....kkkkkkkkkkkkkkkkkkkkkkkkkkkkkkkkkBBqB.CCCCCCCCCCC",
"CCCCCCCCC..kkkkkkkkkkkkkkkkkkkkkkkkkkkkkkkkkkkkkBBuwB..CCCCCCCCC",
"CCCCCCCC..kkkkkkkkkkkkkkkkkkkkkkkkkkkkkkkkkkk..kk3BnBk..CCCCCCCC",
"CCCCCCCC.kkkkkkkkkkkkkkkkkkkkkkkkkkkkkkkkkkkkkkkkkB*Bkk..CCCCCCC",
"CCCCCCC.gkkkkkkkkkkkkkkkkkkkkkkkkkkkkkkkkkkkkkkkkkkkkkkk.CCCCCCC",
"CCCCCCC.kkkkkkkkkkkkkkkkkkkkkkkkkkkkkkkkkkkkkkkkkkkkkkkk..CCCCCC",
"CCCCCC..kkkkkkkkkkkkkkkkkkkkkkkkkkkkkkkkkkkkkkkkkkkkkkkk&.CCCCCC",
"CCCCCC.,kkkkkkkkkkkkkkkkkkkkkkkkkkkkkkkkkkkkkkkkkkkkkkkk..CCCCCC",
"CCCCCC.>kkkkkkkkkkkkkkkkkkkkkkkkkkkkkkkkkkkkkkkkkkkkkkkk.CCCCCCC",
"CCCCCCC.kkkkkkkkkkkkkkkkkkkkkkkkkkkkkkkkkkkkkkkkkkkkkkk..CCCCCCC",
"CCCCCCC..kkkkkkkkkkkkkkkkkkkkkkkkkkkkkkkkkkkkkkkkkkkkk..CCCCCCCC",
"CCCCCCCC..kkkkkkkkkkkkkkkkkkkkkkkkkkkkkkkkkkkkkkkkkk...CCCCCCCCC",
"CCCCCCCCCC...kkkkkkkkkkkkkkkkkkkkkkkkkkkkkkkkkkkk#...CCCCCCCCCCC",
"CCCCCCCCCCCC.....kkkkkkkkkkkkkkkkkkkkkkkkkkkk.....CCCCCCCCCCCCCC",
"CCCCCCCCCCCCCCC.........:skkkkkkkkkk<..........CCCCCCCCCCCCCCCCC",
"CCCCCCCCCCCCCCCCCCCCCC................. CCCCCCCCCCCCCCCCCCCCCCCC",
"CCCCCCCCCCCCCCCCCCCCCCCCCCCCCCCCCCCCCCCCCCCCCCCCCCCCCCCCCCCCCCCC",
"CCCCCCCCCCCCCCCCCCCCCCCCCCCCCCCCCCCCCCCCCCCCCCCCCCCCCCCCCCCCCCCC",
"CCCCCCCCCCCCCCCCCCCCCCCCCCCCCCCCCCCCCCCCCCCCCCCCCCCCCCCCCCCCCCCC",
"CCCCCCCCCCCCCCCCCCCCCCCCCCCCCCCCCCCCCCCCCCCCCCCCCCCCCCCCCCCCCCCC",
"CCCCCCCCCCCCCCCCCCCCCCCCCCCCCCCCCCCCCCCCCCCCCCCCCCCCCCCCCCCCCCCC",
"CCCCCCCCCCCCCCCCCCCCCCCCCCCCCCCCCCCCCCCCCCCCCCCCCCCCCCCCCCCCCCCC",
"CCCCCCCCCCCCCCCCCCCCCCCCCCCCCCCCCCCCCCCCCCCCCCCCCCCCCCCCCCCCCCCC",
"CCCCCCCCCCCCCCCCCCCCCCCCCCCCCCCCCCCCCCCCCCCCCCCCCCCCCCCCCCCCCCCC",
"CCCCCCCCCCCCCCCCCCCCCCCCCCCCCCCCCCCCCCCCCCCCCCCCCCCCCCCCCCCCCCCC",
"CCCCCCCCCCCCCCCCCCCCCCCCCCCCCCCCCCCCCCCCCCCCCCCCCCCCCCCCCCCCCCCC"
};
