/* XPM */
static char *_6b81009b7164ebf8e2680fb2f64ea7cbaKbMt8L8lACRGr0[] = {
/* columns rows colors chars-per-pixel */
"64 63 31 1 ",
"  c #28200C",
". c #382C14",
"X c #202020",
"o c #2C2C2C",
"O c gray22",
"+ c #403018",
"@ c #483818",
"# c #404000",
"$ c #585400",
"% c #706C00",
"& c #5C4020",
"* c #484848",
"= c gray33",
"- c #646464",
"; c gray44",
": c #7C7C7C",
"> c #848400",
", c #9C9C00",
"< c #B4AC00",
"1 c #CCC400",
"2 c #E4D800",
"3 c #FCF420",
"4 c #FCF440",
"5 c gray55",
"6 c #989898",
"7 c gray66",
"8 c #B4B4B4",
"9 c #C0C0C0",
"0 c #D0D0D0",
"q c gainsboro",
"w c #ECECEC",
/* pixels */
" ooooooooooooooooooooooooooooooooooooooooooooooooooooooooooooooo",
"+==========*q444444449q4444qXO5794444444415=X**********=========",
"&==========*q022222279092225XO59851::,,,,:=OXO;,,,,>>:;-********",
" 55555555X=*40<<<<<<7099,,<-XO7q75:5:%>>>:=OXO,12211<987,,,>>555",
"+0<<<8755X=*40,,>>>,7776>>,=XO5955577->%>;=OXO,2<,,,:q1222111<:0",
"+77<<<%:;X=*49,>>;:>76,5;>>=XO*7<7755:$-%==OXO,2,,::51:,,,,,,<-5",
"+86%<,,%;X**40,>>:7>66,56;>$XO*:<5<577;-%OOOX%>1,::111:>,,,>>--<",
"+88:,%>%=XO*405>>:7>5:>675>$#O*%>7<75557;OOOo>>1,:511,:%,,>->-:>",
" 677>%%**Xo*497>>:7%656557>$##*$%%%$OOOOOOOX$,$1>:7,:,::>,>->-7:",
" 555%;=**Xo*1w7,>:56555575>=o#$*OOOOOOOOOXX$1>$,%5,%6,:6%>>-%-57",
" ;;;;=*OOXo*1q5,>::5575757%=oX#$OooXXXXXoo$1>$%>$,>57,:5;>%-----",
" ==***XXXXo*>q7%>:::7655:5;-OX##$#*;3377331>$,%$5%%--%===%******",
" XXXXXooooO=$q05%56,557:5,5=OXO#;73311q00111,$$5;--=*$*OOOOOoooo",
" oooooooooO=*70575,>;5565>-=OXoO731,<<;57,;$XOOOOOOOOOOOooXXXXXX",
" OOOOOOOOOO=*50757>>;5:57>==OXo*71,:<<-55,=%$OooooooooooOOOOOOOO",
" =*OOOOOOOO=*;9576>>;7575%=;*Xo*71>:5<<:5>=$>$*====X************",
" 6666,,,>6oX=*99>5>%>;555;-==XX*71>:7<,;5%=O%,<<<>=*=:6666666666",
" 000111,%;OX=*59%->->>;75;5;*XX*71>:5,%-75=OXO<<,>X*:9111q222222",
"+765<,,,%;OX=*;6-->-%%=5;=;=*XX*7>:5;%%-===OXO,>,>X*6111:,,,,,,>",
"+757<,,,%;OX*=*66;>-$$=;=;=*oXXo75;5;$OOOOOOX-,>>=X*611:6,,,,,,>",
"+7<5<,,,%=OX*=*-==#####OoXXXXXXo5;OOOXXXXXXXX-,>%=X*6<:56,,,,,,>",
"+7,7<,,,%=OX*=*ooooXXXXXXXXXXXXoO=OXXXXoooooo5,>$=X*5<:7676,>>,%",
"+5,::,>,%=OXO==*OXXXXXXXX*******556<<<<<:=oO-9,>%-X*5<:565,,$>,%",
"+5>::,%%-*OXO5111111:5-O*-,111101<,<<<,,,>XO:q,>>;X*:,:657,,$:,%",
".5577,%5-*OXO11<<<<<;:O=*,11;<,<,>>,,,>,>%XO5q,>%>X*>,:76,,%$7%$",
" 6755%5;=OOXO1,>>>>>%-X=*,1<5,>>>>>>>>%%%$XO5w,>$%X*,$;->>>%$;;=",
" -----=*OOOXO1>>>>>>%-X**,1<1,%:>%>>>>%=%$XO5w,>#%X*$OO*$$$$**==",
" =**OOOXXXXoO1>>>>>>%-X**,1<>,%7>->>%>%-%#XO5w,>$$X%OXXXXXXXXXOO",
" XXXXXXooo***1>%->>>%-XO*,1<%,%5>;>>->%-$#XO,w,>$=X%%OOOOOOXXXXX",
" *--;565555*X1>-6>>>%-#X*><<5,%:>,>>;>%-$#XO,w,>$=X%,,>%=%%%%#OO",
" -58<<<<<<7;X<>-5%>>%-#X*>,,6,%5>>>%;>%;$#X%,q,>$=X*%,,,11>>****",
" -8<<>>>>>7*X>$-7:>>%-#X*:>%7>5:%>>%;>%;$#$O,q,>$=X*;,%,,,<<<>6O",
" -<,>>%%>>$;Xw6767>>%-#XO=%w7765;>>;:>%;=OoO,q,>$=X*6;;,,>>%%%:O",
" -<,>%-;>>$;Xw6567>>%-#Xo=7w7>7>5%>::>>,*oo%50%>$=X*q77,%>>$-;-O",
" -<,>%;5<>$=Xq7776>>$-#Xo=5w9>>%5;>57,>$*X$,507>%#X*075,%->$-6-O",
" -<,>%;<,>$=Xq9:6:>>$-#XX*;09>%:65%6<,%$OX$*505%$#X*977,%;>$;7=O",
".->,>>>>>>$=X9q567%>$-##X*=8q%57575>,%%$OXO*:7:%#$O*775,>;>$;6=O",
"+-q>%>%>>>$=X8q:755>$-##XO=5975:>%$$$$$#OXO*=OO$$*$$;=*========O",
"+-q85>7>>>$=X6q6:77>$-=#XO=*55>$$$$X#%$#XXO*=*%%$%==XXXXXXXXXXXX",
"+-q85>6>%>$=X:q,675>$-=#Xo**OoooXX%oo%%$#oO*=%%$*$>%$**OOOOOOOOO",
" -q87%5>$>$=X=w>755>$-=$Xo***OOOOO>**#>>%%%>>%$:::%>,,,::::::::O",
" -q8557>%>$=X*w>5,:>$-=$#oO-::::::<>::$>,<,>%788991111111111>9:O",
" -08776>%>$Xo*w%5>5>$-=$$XO<99999111,991111111111111111111111>-o",
" -08,75>%$=Xo*w57%6>$-=$%#X<2222222227wq<<<<<<<<<<<<<<<<<<,>>:=o",
" -98,57>%5=XO*q77#7>$-=#$%>,<2,,,,,,,>579,,,,>%%%>,,,,,,,,>;;;=o",
" *95,75%$;=XO*05575>$-=O$%%$555,>,,>,>;77,>,,%;;;>,,,>,;,>%;5;=o",
" *87,>5===XoO*87557%#-=O$%$#9q9,%,,%,>;75,%,>%;565>,,%,5,%%:7;=o",
" *::>%====XoO*667555;-=O#$%o8q0,%,,%,%;,7%;,%;:5575,>%,1,%-56;=X",
" *OX%$====XO**:------==OX#$%7q0,%,,%>$;,%:6,%;5<<57,%;>%,%-::;=X",
" ===>$XXoXoO*OOOOOOOOOOOXX##508,%>>%$$;%%;6,%;7>%;5,%;%:>%-::;=X",
" ***,%%*oooO*OOXXXXXXXXXXXXo56;>;$$;;;57;;5>%;5%%-7>%;:7%$-56;=X",
" *:7111,5-**=OOooooooooooooO=*O$ooooo=;;:5:%$;::--:%$-:::--::-=X",
" *7122222,,75;-=*OOOOOOOOOO*=**OOOOOOo*====$$======$$=========Xo",
".*712<5<<<<<222222222222::;--==*****OOooooo##oooooo##XXXXXXXXXoO",
".*712<51<<>-<<<<<<<<<<<<<>59777775*=*OOOOO%$OOooooo$#ooooooooOO*",
"+*712<51<<>-:1<<5<<<%><<<>:9qqq09:O*=***O>%OOOOOOOO%$OOOOOOOO***",
"+*702<517<>-61<<<<1<>:1<<>:75777:-XO=*><<<-***===%<,>%%$*****===",
"@*797<:::<%-71<><51<>:1%<>:75777-=XO**<>>>-qq8==,111111,%0986:**",
"@*75----->$-->$--->$--$>>%------==OXO*->>%-888-=1,>,,,>>,%757q6X",
"@*5-OOOOO$OOO$OOOO$$$$$$$OOOOOOOOOOXo*8>%-6-65-*1>-,>->->%5757=X",
"@*OXXXXXXXXXXXXXX#########XXXXXXXXXXo*O#$=-----*--6,>--:>%7755=X",
"@=*OOOooooooooooooo##oo##ooooooooooooO=##OXXXXXO===%$===%$=====X",
"@====********OOOOOO$$OO$$OOOOOOOOOOOOO====OOOOOO==X##XXX##XXXXXX"
};
