/* XPM */
static char *_c222dd9b6a045b0967c9394a6b8c01eipfRwuOXkxUQAYUt[] = {
/* columns rows colors chars-per-pixel */
"64 64 21 1 ",
"  c black",
". c #00002C",
"X c #202020",
"o c #2C2C2C",
"O c gray22",
"+ c #000040",
"@ c #00004C",
"# c #000058",
"$ c #000064",
"% c #000070",
"& c #00007C",
"* c gray33",
"= c #000088",
"- c #000098",
"; c #0000A4",
": c #0000B0",
"> c #0000BC",
", c #0000D4",
"< c #0000FC",
"1 c #2024FC",
"2 c #4040FC",
/* pixels */
"%%%%%%%%%%%%%%%%%%%%%%%%%%OO%%%%%%%%%%%%%OO%%%%%%%%%%%%O%%%%%OO$",
"--------------------===&%% X--------=&&&& X--------&&$# ;;;;= X$",
"--&-%--=%==%===%%-&%%%%$#@ X--==&--=&&&&@ X-:;:;:::::=% ;;&=&  $",
"=%&===%%-=-#==#&%%==%%$##@ X-=--&==%&%-$@ X-;::-:>;:-=% --;=@  $",
"&-$=$=%%%=&&%#&$=#%$##@@@# X-=&&==%&%$@#@ X-:;->:;-=&&$ &$%%@  $",
"&%---#%%%-===&&%$#%%%$$#@# X--&--%$$$&#@@ X-:->1>-:-=$% =&$#@  $",
"==;;---=---==$&@%#%%%%$@@@ X---&&%$&&&$#@ X-;:-::--;%%$ =%@@@  $",
"-=-;;-=%#--=&&%$$$#%%$#@## X--&%&&&%&%#@@ X-;:;-;;;-%$% =#@#@  $",
"=%=--&=%=$$&&&##%&@$$$##@@ X-=&&$&--%$%@# X-;>;;&&--=$#        $",
"&&&-%%%--$@#@$@&$%$#$$#@@@ X-&&$%%&&$#@#@ X-;:-;&&&=&#@ =;;;-  $",
"%&-&&$=--$$@@@$#%$#$%%$@#@ X=&%$$&&$%#@#@ X-;::-&&&&%## -;=;&  #",
"&=%%-&#%@%@@@@##&++@%%%@@@ X=&%$$$&@$@$@@ X-;::;-&&=%## =-&=#  #",
"%=%#&&%#%#%#@$@$@+++@$$@#@ X=%&$$##$#@##@ X-;::-==%&$@@ =-=$@  #",
"=%%%$#@@#%#$##@@@@++@@@@@@ X&&$$#@@@@#@#@ X-;-:&=&=%%@# &&%#$  #",
"%=##$#%#$@@#@####@@@@@@@@@ X&#&##@@@@@@@@ X=:;::&-&$#@@ %$#@@  #",
"                           X              X=:;-==&&#@#@         ",
";-;-----;----XXXXXXXXXXXXXXXXXXXXXXXXXXXXXX=;:=:%=%%#@@ $>>>>>$&",
"-=-:;-&--%-=% XX#%=%==--%%@@++XXX@$==-&%$$X=:;:==>=%$#@ &>>,:>&%",
"==&--&%==%%== X#%====-;--&#$$#@XX$=-%&%&%# ==-;:==%%$@# ->,<,;&%",
"=;;==%%%=%%%% X===;-;;%&=#$#@#$XX%-%$#%#@% &;;:;=&%#@## ->>,;>%$",
"=;:;%%==%=@%% +;=;&;-%@$%$@@#$% X&&-%$$@$# &:;;$$&%$##@ ;>>;-;$@",
"&=;;%=%%##$%% +--;;-;=$%$@###@$ X$-&&#@%@@ %---$$$%$@@@ :>>;>-$$",
"%&=-=%%=#$%@@ @-;;->=&%$###@$$@ X$$#@@#@## %=--&$$$#@@@ ;>;:;-%@",
"&=%=%==%$%#%@ $=--&%&&$$%$#$@@$ XX         %==:%%$$$@#@ ;>;-=:%$",
"=&;====%%$@@@ $=-&%=&$@$$=$%$%$ --::--==& X==-==%$$@#@@ ->>;>>%%",
"&%&;;#%=&&$@# $=&%;-=%$%&>;&$#$ -::-=&$&% X=:;-=%%$###@ ->;>:;%$",
"%&-;;-=%&&$@# @&&%=;==&&=;&%%$% -=--&$-$# X-:;:-=&$#@## ->>>;-$#",
";==-;-#%$$$@@ +%%&;2;&-=%=&$&#% --=%&-&$$ X-;-:-=%$##$@ &>>>;;%#",
"&--=--#$@#@@@ +%%&=;--=--&=%@%@ ---=-$$&$ X--=-&=&%@@@# &>;>>-$@",
"&---=%$#@#++@  %&=-&-&-;$;$@#$@ ->;-&$### X-=-&%%%%@@@@ &>>:;;$#",
"=&--%##@@@++#  #%%=%=-=-;$@#%@@ -=;-&$$$# X-=:-=&$$@$@@ &>>;=-#@",
"&%&&%##$%%#@# X@#%%%%=-$%=$%@@@ -==-%##$@ X--;:-&$#%%@@ &>;>;=#@",
"-=$%%$#$%%#@@ XX+@@@@@@@@@@@@@+ -=-#$%$#@ X--;;--=%#%#@ &>;>&&#@",
"=&&%##@#$$#@@ XXX               --&%###@@ X-::-====&#@@ &>>&=&#$",
"=&%%%%@#+@@#@ XX######$$$####@XX-&&$@@#@@ X-::-=%==&%$@ $>;>==+#",
"&%$%%%@+++@@@ XX#$%==%=&&%%##@ X--&%#@#@@ X-=:=:%$&%$#@ $>;==&+@",
"#$%#%%@++++#@ XX#%==&=%$&$$&$@ X--%=$#@@@ X---;==$$###@ $;;=&&+@",
"%#%#$@#+@++@@ XX#=&$==$&$@$=$$ X--=-%$#@@ X-:-==$@@$@@@ $;=&=&+#",
"=&$%$@@@+++@@ XX#=%=%%=$&#@$$@ X-=-=&%$## X-:=-=$#@@$@@ $;===&+@",
"&%#$%$@@#@@## XX#&==%$#@#@@#@@ X--&%%$##@ X=;==%%$##@@@ $===%=+#",
"              XX#=&%#@@#@@$$$@ X==%%#$@#@ X=-=%@%@@#@@@ X       ",
"XXXX@@$$&&&%$#@@X              X=-%#$$@@# X&%@#@$$#@@@@ X$$$$X  ",
"=-;::::::::::::;;;--==%XXXXXXXXX==%$#@@@@ X&%##@@@@#@$@ X$@%@X  ",
"-:::::;-;:---:--;;%&&&# X@@##$XX=%&$@@@@@ XX            X@@@$X  ",
"-:;;-;;:::=-:::;-&;#%@# X@=&;% X&%&#$#@## XXXXXXXXXXXXXXXXXXXX  ",
":::;;::==-::=;&-==%&#@# X@-;=@ X%%#$#@@@@ XX:::::::::::::;;;-X  ",
":-;-;;;===:-&&-%===%$@@ X#;;-& XX         XX::::;;--;;;--;:-&   ",
"::;=&;;-==-::---%==%@@# X#-&$@ X&=-;---=&&XX:;;:;->>-;-=::==&   ",
"::=-:;&-;;;%--<-=#$#@#@ X$=$@@ X=-;-=;=;$$ X::;;-::>%%=&%=$&%   ",
"::::-&:&;%%-&--=%==%### X$&#@# X-;;-&%&$@# X:;:;-;;-%%%=-%%%$   ",
":-:=--:;=%%%--$%=%%#@%@ XX     X=-&&%$@#@@ X::;,,-=-=%%-&&=#@   ",
":;==:,:-&-%%--&&%=$$#@@ XXXXXXXX           X:;-,,>:;-=;%$==#@   ",
":-:-,2,==-=&%&&&&%++@#@ X===-------===&&$$XX:;-=>>-=%=%&==%#@   ",
":;:;:,:-%--###%&&$+++@@ X=-=&-&=--&=-%%$$@ X:--;=&=&-&%&-&$#@   ",
":-:;;;&&&%$####$$$@++@@ X==&&&---;=&&&#$@@ X::-==&&%&===&$#@@   ",
"-:;;-%%=-==%####$#@%@@@ X-&--;=-=---=&%$@# X:;-=%%%$%&=%#@#$@   ",
":-:;&&;%--=$%@$%%@#@@@# X--&-=&%&=--=&%@## X:;:;-&$@@%$@@++#@   ",
":-:-=&%#&--=$#@%%%@#@#@ X=&-=&-%&===&%$#@@ X::--%%=@@#$@@+++@   ",
";-&&&-#&#&==$$#%%%@@$@@ X=-&%%%&$%%&%$#@@@ X;=-=:=%%#$@$@@++@   ",
";-$#&#-%%=@#@@#@%%@@##@ X&=-%$%#%$%$$$@##@ X;:-%=$$%@#@@@###@   ",
"--&&#&@#@#$#$#$@@@@@@@@ X&=&%$#$$#@$@@##@@ X-%=%&=%$#@#@#@@@@   ",
"-=%&=$$$$$$############ X&%$$$$$$######$#$XX-=%&%$$##########XX.",
"%%%%%%%%%%%%%%%%%%%%%%%OO%%%%%%%%%%%%%%%%%OO%%%%%%%%%%%%%%%%%ooo",
"**************************************************************OO"
};
